<?xml version="1.0" encoding="UTF-8"?>
<svg xmlns="http://www.w3.org/2000/svg" id="Layer_1" data-name="Layer 1" viewBox="0 0 24 24">
  <path d="M19,2H5C2.243,2,0,4.243,0,7v10c0,2.757,2.243,5,5,5h14c2.757,0,5-2.243,5-5V7c0-2.757-2.243-5-5-5Zm2.08,11.865l-7.183,5.493c-1.117,.853-2.678,.854-3.794,0L2.92,13.865c-1.218-.879-1.218-2.851,0-3.73l7.183-5.493h0c1.116-.854,2.678-.854,3.794,0l7.183,5.493c1.218,.879,1.218,2.851,0,3.73ZM12.683,6.231c-.401-.307-.963-.308-1.365,0l-7.183,5.493c-.193,.199-.194,.353,0,.553l7.183,5.493c.401,.307,.963,.307,1.366,0l7.182-5.493c.193-.199,.194-.353,0-.553l-7.183-5.493Zm-.683,9.269c-1.933,0-3.5-1.567-3.5-3.5,0-.171,.027-.334,.05-.498,.448,.016,3.713,.225,6.188,2.655-.641,.812-1.623,1.344-2.738,1.344Zm3.486-3.359c-2.201-1.83-4.669-2.392-6.004-2.563,.637-.662,1.527-1.078,2.518-1.078,1.933,0,3.5,1.567,3.5,3.5,0,.048-.012,.093-.014,.141Z"/>
</svg>
